<svg width="24" height="24" viewBox="0 0 24 24" fill="none" xmlns="http://www.w3.org/2000/svg">
<g filter="url(#filter0_i_24_3)">
<rect width="24" height="24" rx="5" fill="#0E0E0E"/>
<path d="M3 20V5.5C3 4.67157 3.67157 4 4.5 4C5.32843 4 6 4.67157 6 5.5V10.5C6 11.3284 6.67157 12 7.5 12C8.32843 12 9 11.3284 9 10.5V5.5C9 4.67157 9.67157 4 10.5 4C11.3284 4 12 4.67157 12 5.5V20M21 20H19C16.2386 20 14 17.7614 14 15V12M21 4H19C16.2386 4 14 6.23858 14 9V12M14 12H20" stroke="#19615D"/>
<path d="M3 21V6.5C3 5.67157 3.67157 5 4.5 5C5.32843 5 6 5.67157 6 6.5V11.5C6 12.3284 6.67157 13 7.5 13C8.32843 13 9 12.3284 9 11.5V6.5C9 5.67157 9.67157 5 10.5 5C11.3284 5 12 5.67157 12 6.5V21M21 21H19C16.2386 21 14 18.7614 14 16V13M21 5H19C16.2386 5 14 7.23858 14 10V13M14 13H20" stroke="#19615D"/>
<path d="M3 19V4.5C3 3.67157 3.67157 3 4.5 3C5.32843 3 6 3.67157 6 4.5V9.5C6 10.3284 6.67157 11 7.5 11C8.32843 11 9 10.3284 9 9.5V4.5C9 3.67157 9.67157 3 10.5 3C11.3284 3 12 3.67157 12 4.5V19M21 19H19C16.2386 19 14 16.7614 14 14V11M21 3H19C16.2386 3 14 5.23858 14 8V11M14 11H20" stroke="#94E3DF"/>
</g>
<defs>
<filter id="filter0_i_24_3" x="0" y="0" width="24" height="26" filterUnits="userSpaceOnUse" color-interpolation-filters="sRGB">
<feFlood flood-opacity="0" result="BackgroundImageFix"/>
<feBlend mode="normal" in="SourceGraphic" in2="BackgroundImageFix" result="shape"/>
<feColorMatrix in="SourceAlpha" type="matrix" values="0 0 0 0 0 0 0 0 0 0 0 0 0 0 0 0 0 0 127 0" result="hardAlpha"/>
<feOffset dy="4"/>
<feGaussianBlur stdDeviation="1"/>
<feComposite in2="hardAlpha" operator="arithmetic" k2="-1" k3="1"/>
<feColorMatrix type="matrix" values="0 0 0 0 1 0 0 0 0 1 0 0 0 0 1 0 0 0 0.05 0"/>
<feBlend mode="normal" in2="shape" result="effect1_innerShadow_24_3"/>
</filter>
</defs>
</svg>
